<mxfile host="app.diagrams.net" modified="2023-07-25T09:32:48.901Z" agent="Mozilla/5.0 (X11; Linux x86_64; rv:109.0) Gecko/20100101 Firefox/115.0" etag="qOfv0j7WKrhf4mw2orSa" version="21.6.5" type="device">
  <diagram name="Page-1" id="g-YYf_nvfBdNuT4UyRlO">
    <mxGraphModel dx="1631" dy="872" grid="1" gridSize="10" guides="1" tooltips="1" connect="1" arrows="1" fold="1" page="1" pageScale="1" pageWidth="1600" pageHeight="900" math="0" shadow="0">
      <root>
        <mxCell id="0" />
        <mxCell id="1" parent="0" />
        <mxCell id="YneG4pRLCPzbk9W63suN-1" value="" style="strokeWidth=1;shadow=0;dashed=0;align=center;shape=mxgraph.mockup.containers.browserWindow;rSize=0;strokeColor=#666666;strokeColor2=#008cff;strokeColor3=#c4c4c4;mainText=,;recursiveResize=0;fontSize=24;html=1;aspect=fixed;fontStyle=1" parent="1" vertex="1">
          <mxGeometry y="120" width="1386.67" height="780" as="geometry" />
        </mxCell>
        <mxCell id="YneG4pRLCPzbk9W63suN-2" value="Page 1" style="strokeWidth=1;shadow=0;dashed=0;align=center;html=1;shape=mxgraph.mockup.containers.anchor;fontSize=17;fontColor=#666666;align=left;whiteSpace=wrap;" parent="YneG4pRLCPzbk9W63suN-1" vertex="1">
          <mxGeometry x="60" y="12" width="110" height="26" as="geometry" />
        </mxCell>
        <mxCell id="YneG4pRLCPzbk9W63suN-3" value="https://www.draw.io" style="strokeWidth=1;shadow=0;dashed=0;align=center;html=1;shape=mxgraph.mockup.containers.anchor;rSize=0;fontSize=17;fontColor=#666666;align=left;" parent="YneG4pRLCPzbk9W63suN-1" vertex="1">
          <mxGeometry x="130" y="60" width="250" height="26" as="geometry" />
        </mxCell>
        <mxCell id="YneG4pRLCPzbk9W63suN-4" value="PROFILING RESULTS" style="text;html=1;strokeColor=none;fillColor=none;align=center;verticalAlign=middle;whiteSpace=wrap;rounded=0;fontSize=34;fontStyle=1;" parent="YneG4pRLCPzbk9W63suN-1" vertex="1">
          <mxGeometry x="488.34000000000003" y="130" width="410" height="60" as="geometry" />
        </mxCell>
        <mxCell id="YneG4pRLCPzbk9W63suN-5" value="&lt;div&gt;&lt;span style=&quot;font-weight: normal;&quot;&gt;TOTAL PEOPLE&lt;/span&gt;&lt;/div&gt;&lt;div style=&quot;font-size: 21px;&quot;&gt;245&lt;br&gt;&lt;/div&gt;" style="rounded=1;whiteSpace=wrap;html=1;fontStyle=1" parent="YneG4pRLCPzbk9W63suN-1" vertex="1">
          <mxGeometry x="60.830000000000005" y="190" width="115" height="70" as="geometry" />
        </mxCell>
        <mxCell id="YneG4pRLCPzbk9W63suN-6" value="&lt;div&gt;&lt;span style=&quot;font-weight: normal;&quot;&gt;PROFILING TIME&lt;br&gt;&lt;/span&gt;&lt;/div&gt;&lt;div style=&quot;font-size: 21px;&quot;&gt;1m 67s&lt;br&gt;&lt;/div&gt;" style="rounded=1;whiteSpace=wrap;html=1;fontStyle=1" parent="YneG4pRLCPzbk9W63suN-1" vertex="1">
          <mxGeometry x="205.83" y="190" width="115" height="70" as="geometry" />
        </mxCell>
        <mxCell id="YneG4pRLCPzbk9W63suN-7" value="&lt;div&gt;&lt;span style=&quot;font-weight: normal;&quot;&gt;ALGORITHM&lt;br&gt;&lt;/span&gt;&lt;/div&gt;&lt;div style=&quot;font-size: 21px;&quot;&gt;Grivas&lt;/div&gt;" style="rounded=1;whiteSpace=wrap;html=1;fontStyle=1" parent="YneG4pRLCPzbk9W63suN-1" vertex="1">
          <mxGeometry x="349.16" y="190" width="115" height="70" as="geometry" />
        </mxCell>
        <mxCell id="YneG4pRLCPzbk9W63suN-8" value="" style="rounded=1;whiteSpace=wrap;html=1;fontStyle=1;arcSize=8;" parent="YneG4pRLCPzbk9W63suN-1" vertex="1">
          <mxGeometry x="60.830000000000005" y="290" width="495" height="270" as="geometry" />
        </mxCell>
        <mxCell id="YneG4pRLCPzbk9W63suN-9" value="PEOPLE LIST" style="text;html=1;strokeColor=none;fillColor=none;align=center;verticalAlign=middle;whiteSpace=wrap;rounded=0;" parent="YneG4pRLCPzbk9W63suN-1" vertex="1">
          <mxGeometry x="68.33" y="300" width="100" height="30" as="geometry" />
        </mxCell>
        <mxCell id="YneG4pRLCPzbk9W63suN-10" value="" style="shape=table;html=1;whiteSpace=wrap;startSize=0;container=1;collapsible=0;childLayout=tableLayout;strokeWidth=2;" parent="YneG4pRLCPzbk9W63suN-1" vertex="1">
          <mxGeometry x="83.33" y="340" width="452.5" height="161" as="geometry" />
        </mxCell>
        <mxCell id="YneG4pRLCPzbk9W63suN-11" value="" style="shape=tableRow;horizontal=0;startSize=0;swimlaneHead=0;swimlaneBody=0;top=0;left=0;bottom=0;right=0;collapsible=0;dropTarget=0;fillColor=none;points=[[0,0.5],[1,0.5]];portConstraint=eastwest;" parent="YneG4pRLCPzbk9W63suN-10" vertex="1">
          <mxGeometry width="452.5" height="27" as="geometry" />
        </mxCell>
        <mxCell id="YneG4pRLCPzbk9W63suN-12" value="NAME" style="shape=partialRectangle;html=1;whiteSpace=wrap;connectable=0;fillColor=none;top=0;left=0;bottom=0;right=0;overflow=hidden;fontStyle=1" parent="YneG4pRLCPzbk9W63suN-11" vertex="1">
          <mxGeometry width="151" height="27" as="geometry">
            <mxRectangle width="151" height="27" as="alternateBounds" />
          </mxGeometry>
        </mxCell>
        <mxCell id="YneG4pRLCPzbk9W63suN-13" value="AGE" style="shape=partialRectangle;html=1;whiteSpace=wrap;connectable=0;fillColor=none;top=0;left=0;bottom=0;right=0;overflow=hidden;fontStyle=1" parent="YneG4pRLCPzbk9W63suN-11" vertex="1">
          <mxGeometry x="151" width="151" height="27" as="geometry">
            <mxRectangle width="151" height="27" as="alternateBounds" />
          </mxGeometry>
        </mxCell>
        <mxCell id="YneG4pRLCPzbk9W63suN-14" value="GENDER" style="shape=partialRectangle;html=1;whiteSpace=wrap;connectable=0;fillColor=none;top=0;left=0;bottom=0;right=0;overflow=hidden;fontStyle=1" parent="YneG4pRLCPzbk9W63suN-11" vertex="1">
          <mxGeometry x="302" width="151" height="27" as="geometry">
            <mxRectangle width="151" height="27" as="alternateBounds" />
          </mxGeometry>
        </mxCell>
        <mxCell id="YneG4pRLCPzbk9W63suN-15" value="" style="shape=tableRow;horizontal=0;startSize=0;swimlaneHead=0;swimlaneBody=0;top=0;left=0;bottom=0;right=0;collapsible=0;dropTarget=0;fillColor=none;points=[[0,0.5],[1,0.5]];portConstraint=eastwest;" parent="YneG4pRLCPzbk9W63suN-10" vertex="1">
          <mxGeometry y="27" width="452.5" height="26" as="geometry" />
        </mxCell>
        <mxCell id="YneG4pRLCPzbk9W63suN-16" value="Peter" style="shape=partialRectangle;html=1;whiteSpace=wrap;connectable=0;fillColor=none;top=0;left=0;bottom=0;right=0;overflow=hidden;" parent="YneG4pRLCPzbk9W63suN-15" vertex="1">
          <mxGeometry width="151" height="26" as="geometry">
            <mxRectangle width="151" height="26" as="alternateBounds" />
          </mxGeometry>
        </mxCell>
        <mxCell id="YneG4pRLCPzbk9W63suN-17" value="24-34 y/o" style="shape=partialRectangle;html=1;whiteSpace=wrap;connectable=0;fillColor=none;top=0;left=0;bottom=0;right=0;overflow=hidden;" parent="YneG4pRLCPzbk9W63suN-15" vertex="1">
          <mxGeometry x="151" width="151" height="26" as="geometry">
            <mxRectangle width="151" height="26" as="alternateBounds" />
          </mxGeometry>
        </mxCell>
        <mxCell id="YneG4pRLCPzbk9W63suN-18" value="Male" style="shape=partialRectangle;html=1;whiteSpace=wrap;connectable=0;fillColor=none;top=0;left=0;bottom=0;right=0;overflow=hidden;" parent="YneG4pRLCPzbk9W63suN-15" vertex="1">
          <mxGeometry x="302" width="151" height="26" as="geometry">
            <mxRectangle width="151" height="26" as="alternateBounds" />
          </mxGeometry>
        </mxCell>
        <mxCell id="YneG4pRLCPzbk9W63suN-19" value="" style="shape=tableRow;horizontal=0;startSize=0;swimlaneHead=0;swimlaneBody=0;top=0;left=0;bottom=0;right=0;collapsible=0;dropTarget=0;fillColor=none;points=[[0,0.5],[1,0.5]];portConstraint=eastwest;" parent="YneG4pRLCPzbk9W63suN-10" vertex="1">
          <mxGeometry y="53" width="452.5" height="27" as="geometry" />
        </mxCell>
        <mxCell id="YneG4pRLCPzbk9W63suN-20" value="Cristina" style="shape=partialRectangle;html=1;whiteSpace=wrap;connectable=0;fillColor=none;top=0;left=0;bottom=0;right=0;overflow=hidden;" parent="YneG4pRLCPzbk9W63suN-19" vertex="1">
          <mxGeometry width="151" height="27" as="geometry">
            <mxRectangle width="151" height="27" as="alternateBounds" />
          </mxGeometry>
        </mxCell>
        <mxCell id="YneG4pRLCPzbk9W63suN-21" value="24-34 y/o" style="shape=partialRectangle;html=1;whiteSpace=wrap;connectable=0;fillColor=none;top=0;left=0;bottom=0;right=0;overflow=hidden;" parent="YneG4pRLCPzbk9W63suN-19" vertex="1">
          <mxGeometry x="151" width="151" height="27" as="geometry">
            <mxRectangle width="151" height="27" as="alternateBounds" />
          </mxGeometry>
        </mxCell>
        <mxCell id="YneG4pRLCPzbk9W63suN-22" value="Female" style="shape=partialRectangle;html=1;whiteSpace=wrap;connectable=0;fillColor=none;top=0;left=0;bottom=0;right=0;overflow=hidden;" parent="YneG4pRLCPzbk9W63suN-19" vertex="1">
          <mxGeometry x="302" width="151" height="27" as="geometry">
            <mxRectangle width="151" height="27" as="alternateBounds" />
          </mxGeometry>
        </mxCell>
        <mxCell id="YneG4pRLCPzbk9W63suN-23" style="shape=tableRow;horizontal=0;startSize=0;swimlaneHead=0;swimlaneBody=0;top=0;left=0;bottom=0;right=0;collapsible=0;dropTarget=0;fillColor=none;points=[[0,0.5],[1,0.5]];portConstraint=eastwest;" parent="YneG4pRLCPzbk9W63suN-10" vertex="1">
          <mxGeometry y="80" width="452.5" height="27" as="geometry" />
        </mxCell>
        <mxCell id="YneG4pRLCPzbk9W63suN-24" value="Lara" style="shape=partialRectangle;html=1;whiteSpace=wrap;connectable=0;fillColor=none;top=0;left=0;bottom=0;right=0;overflow=hidden;" parent="YneG4pRLCPzbk9W63suN-23" vertex="1">
          <mxGeometry width="151" height="27" as="geometry">
            <mxRectangle width="151" height="27" as="alternateBounds" />
          </mxGeometry>
        </mxCell>
        <mxCell id="YneG4pRLCPzbk9W63suN-25" value="24-34 y/o" style="shape=partialRectangle;html=1;whiteSpace=wrap;connectable=0;fillColor=none;top=0;left=0;bottom=0;right=0;overflow=hidden;" parent="YneG4pRLCPzbk9W63suN-23" vertex="1">
          <mxGeometry x="151" width="151" height="27" as="geometry">
            <mxRectangle width="151" height="27" as="alternateBounds" />
          </mxGeometry>
        </mxCell>
        <mxCell id="YneG4pRLCPzbk9W63suN-26" value="Female" style="shape=partialRectangle;html=1;whiteSpace=wrap;connectable=0;fillColor=none;top=0;left=0;bottom=0;right=0;overflow=hidden;" parent="YneG4pRLCPzbk9W63suN-23" vertex="1">
          <mxGeometry x="302" width="151" height="27" as="geometry">
            <mxRectangle width="151" height="27" as="alternateBounds" />
          </mxGeometry>
        </mxCell>
        <mxCell id="YneG4pRLCPzbk9W63suN-27" style="shape=tableRow;horizontal=0;startSize=0;swimlaneHead=0;swimlaneBody=0;top=0;left=0;bottom=0;right=0;collapsible=0;dropTarget=0;fillColor=none;points=[[0,0.5],[1,0.5]];portConstraint=eastwest;" parent="YneG4pRLCPzbk9W63suN-10" vertex="1">
          <mxGeometry y="107" width="452.5" height="27" as="geometry" />
        </mxCell>
        <mxCell id="YneG4pRLCPzbk9W63suN-28" value="Jorge" style="shape=partialRectangle;html=1;whiteSpace=wrap;connectable=0;fillColor=none;top=0;left=0;bottom=0;right=0;overflow=hidden;" parent="YneG4pRLCPzbk9W63suN-27" vertex="1">
          <mxGeometry width="151" height="27" as="geometry">
            <mxRectangle width="151" height="27" as="alternateBounds" />
          </mxGeometry>
        </mxCell>
        <mxCell id="YneG4pRLCPzbk9W63suN-29" value="24-34 y/o" style="shape=partialRectangle;html=1;whiteSpace=wrap;connectable=0;fillColor=none;top=0;left=0;bottom=0;right=0;overflow=hidden;" parent="YneG4pRLCPzbk9W63suN-27" vertex="1">
          <mxGeometry x="151" width="151" height="27" as="geometry">
            <mxRectangle width="151" height="27" as="alternateBounds" />
          </mxGeometry>
        </mxCell>
        <mxCell id="YneG4pRLCPzbk9W63suN-30" value="Male" style="shape=partialRectangle;html=1;whiteSpace=wrap;connectable=0;fillColor=none;top=0;left=0;bottom=0;right=0;overflow=hidden;" parent="YneG4pRLCPzbk9W63suN-27" vertex="1">
          <mxGeometry x="302" width="151" height="27" as="geometry">
            <mxRectangle width="151" height="27" as="alternateBounds" />
          </mxGeometry>
        </mxCell>
        <mxCell id="YneG4pRLCPzbk9W63suN-31" style="shape=tableRow;horizontal=0;startSize=0;swimlaneHead=0;swimlaneBody=0;top=0;left=0;bottom=0;right=0;collapsible=0;dropTarget=0;fillColor=none;points=[[0,0.5],[1,0.5]];portConstraint=eastwest;" parent="YneG4pRLCPzbk9W63suN-10" vertex="1">
          <mxGeometry y="134" width="452.5" height="27" as="geometry" />
        </mxCell>
        <mxCell id="YneG4pRLCPzbk9W63suN-32" value="Diego" style="shape=partialRectangle;html=1;whiteSpace=wrap;connectable=0;fillColor=none;top=0;left=0;bottom=0;right=0;overflow=hidden;" parent="YneG4pRLCPzbk9W63suN-31" vertex="1">
          <mxGeometry width="151" height="27" as="geometry">
            <mxRectangle width="151" height="27" as="alternateBounds" />
          </mxGeometry>
        </mxCell>
        <mxCell id="YneG4pRLCPzbk9W63suN-33" value="24-34 y/o" style="shape=partialRectangle;html=1;whiteSpace=wrap;connectable=0;fillColor=none;top=0;left=0;bottom=0;right=0;overflow=hidden;" parent="YneG4pRLCPzbk9W63suN-31" vertex="1">
          <mxGeometry x="151" width="151" height="27" as="geometry">
            <mxRectangle width="151" height="27" as="alternateBounds" />
          </mxGeometry>
        </mxCell>
        <mxCell id="YneG4pRLCPzbk9W63suN-34" value="Male" style="shape=partialRectangle;html=1;whiteSpace=wrap;connectable=0;fillColor=none;top=0;left=0;bottom=0;right=0;overflow=hidden;" parent="YneG4pRLCPzbk9W63suN-31" vertex="1">
          <mxGeometry x="302" width="151" height="27" as="geometry">
            <mxRectangle width="151" height="27" as="alternateBounds" />
          </mxGeometry>
        </mxCell>
        <mxCell id="YneG4pRLCPzbk9W63suN-35" value="" style="rounded=1;whiteSpace=wrap;html=1;fontStyle=1;arcSize=8;" parent="YneG4pRLCPzbk9W63suN-1" vertex="1">
          <mxGeometry x="595.83" y="290" width="440" height="270" as="geometry" />
        </mxCell>
        <mxCell id="YneG4pRLCPzbk9W63suN-36" value="AGE DISTRIBUTION" style="text;html=1;strokeColor=none;fillColor=none;align=center;verticalAlign=middle;whiteSpace=wrap;rounded=0;" parent="YneG4pRLCPzbk9W63suN-1" vertex="1">
          <mxGeometry x="605.83" y="300" width="120" height="30" as="geometry" />
        </mxCell>
        <mxCell id="YneG4pRLCPzbk9W63suN-37" value="" style="verticalLabelPosition=bottom;shadow=0;dashed=0;align=center;html=1;verticalAlign=top;strokeWidth=1;shape=mxgraph.mockup.graphics.columnChart;strokeColor=none;strokeColor2=none;strokeColor3=#666666;fillColor2=#008cff;fillColor3=#dddddd;" parent="YneG4pRLCPzbk9W63suN-1" vertex="1">
          <mxGeometry x="615.83" y="340" width="400" height="130" as="geometry" />
        </mxCell>
        <mxCell id="YneG4pRLCPzbk9W63suN-38" value="&lt;div&gt;&lt;span style=&quot;font-weight: normal;&quot;&gt;MEDIAN AGE&lt;br&gt;&lt;/span&gt;&lt;/div&gt;&lt;div style=&quot;font-size: 21px;&quot;&gt;34-45 y/o&lt;br&gt;&lt;/div&gt;" style="rounded=1;whiteSpace=wrap;html=1;fontStyle=1" parent="YneG4pRLCPzbk9W63suN-1" vertex="1">
          <mxGeometry x="755.83" y="490" width="120" height="50" as="geometry" />
        </mxCell>
        <mxCell id="YneG4pRLCPzbk9W63suN-39" value="" style="rounded=1;whiteSpace=wrap;html=1;fontStyle=1;arcSize=8;" parent="YneG4pRLCPzbk9W63suN-1" vertex="1">
          <mxGeometry x="1075.83" y="290" width="250" height="270" as="geometry" />
        </mxCell>
        <mxCell id="YneG4pRLCPzbk9W63suN-40" value="GENDER DISTRIBUTION" style="text;html=1;strokeColor=none;fillColor=none;align=center;verticalAlign=middle;whiteSpace=wrap;rounded=0;" parent="YneG4pRLCPzbk9W63suN-1" vertex="1">
          <mxGeometry x="1090" y="300" width="144.17" height="30" as="geometry" />
        </mxCell>
        <mxCell id="YneG4pRLCPzbk9W63suN-41" value="" style="verticalLabelPosition=bottom;shadow=0;dashed=0;align=center;html=1;verticalAlign=top;strokeWidth=1;shape=mxgraph.mockup.graphics.pieChart;strokeColor=#FFFFFF;parts=10,20,35;partColors=#e0e0e0,#d0d0d0,#c0c0c0,#b0b0b0,#a0a0a0;strokeWidth=2;" parent="YneG4pRLCPzbk9W63suN-1" vertex="1">
          <mxGeometry x="1132.71" y="340" width="130" height="130" as="geometry" />
        </mxCell>
        <mxCell id="YneG4pRLCPzbk9W63suN-42" value="&lt;div&gt;&lt;span style=&quot;font-weight: normal;&quot;&gt;MALE&lt;br&gt;&lt;/span&gt;&lt;/div&gt;&lt;div style=&quot;font-size: 21px;&quot;&gt;23&lt;br&gt;&lt;/div&gt;" style="rounded=1;whiteSpace=wrap;html=1;fontStyle=1" parent="YneG4pRLCPzbk9W63suN-1" vertex="1">
          <mxGeometry x="1100.84" y="490" width="90" height="50" as="geometry" />
        </mxCell>
        <mxCell id="YneG4pRLCPzbk9W63suN-43" value="&lt;div&gt;&lt;span style=&quot;font-weight: normal;&quot;&gt;FEMALE&lt;br&gt;&lt;/span&gt;&lt;/div&gt;&lt;div style=&quot;font-size: 21px;&quot;&gt;18&lt;br&gt;&lt;/div&gt;" style="rounded=1;whiteSpace=wrap;html=1;fontStyle=1" parent="YneG4pRLCPzbk9W63suN-1" vertex="1">
          <mxGeometry x="1210.84" y="490" width="90" height="50" as="geometry" />
        </mxCell>
        <mxCell id="YneG4pRLCPzbk9W63suN-44" value="" style="verticalLabelPosition=bottom;shadow=0;dashed=0;align=center;html=1;verticalAlign=top;strokeWidth=1;shape=mxgraph.mockup.navigation.pageControl;fillColor=#999999;strokeColor=#ddeeff;" parent="YneG4pRLCPzbk9W63suN-1" vertex="1">
          <mxGeometry x="258.33" y="520" width="100" height="30" as="geometry" />
        </mxCell>
        <mxCell id="YneG4pRLCPzbk9W63suN-45" value="" style="rounded=1;whiteSpace=wrap;html=1;fontStyle=1;arcSize=8;" parent="YneG4pRLCPzbk9W63suN-1" vertex="1">
          <mxGeometry x="60.83" y="600" width="399.17" height="160" as="geometry" />
        </mxCell>
        <mxCell id="YneG4pRLCPzbk9W63suN-46" value="PERSONALITY TRAITS" style="text;html=1;strokeColor=none;fillColor=none;align=center;verticalAlign=middle;whiteSpace=wrap;rounded=0;" parent="YneG4pRLCPzbk9W63suN-1" vertex="1">
          <mxGeometry x="60.83" y="610" width="150" height="30" as="geometry" />
        </mxCell>
        <mxCell id="YneG4pRLCPzbk9W63suN-53" value="" style="verticalLabelPosition=bottom;shadow=0;dashed=0;align=center;html=1;verticalAlign=top;strokeWidth=1;shape=mxgraph.mockup.graphics.columnChart;strokeColor=none;strokeColor2=none;strokeColor3=#666666;fillColor2=#008cff;fillColor3=#dddddd;" parent="YneG4pRLCPzbk9W63suN-1" vertex="1">
          <mxGeometry x="74.16" y="650" width="361.67" height="100" as="geometry" />
        </mxCell>
        <mxCell id="h3l34sJhCfpJDiKCtQ9r-1" value="" style="html=1;verticalLabelPosition=bottom;labelBackgroundColor=#ffffff;verticalAlign=top;shadow=0;dashed=0;strokeWidth=2;shape=mxgraph.ios7.misc.down;strokeColor=#000000;fontSize=9;" vertex="1" parent="YneG4pRLCPzbk9W63suN-1">
          <mxGeometry x="181" y="352" width="8" height="3" as="geometry" />
        </mxCell>
      </root>
    </mxGraphModel>
  </diagram>
</mxfile>
